<svg data-v-0dd9719b="" version="1.0" xmlns="http://www.w3.org/2000/svg" xmlns:xlink="http://www.w3.org/1999/xlink" width="100%" height="100%" viewBox="0 0 340.000000 250.000000" preserveAspectRatio="xMidYMid meet" color-interpolation-filters="sRGB" style="margin: auto;"> <rect data-v-0dd9719b="" x="0" y="0" width="100%" height="100%" fill="#fff" fill-opacity="1" class="background"></rect> <rect data-v-0dd9719b="" x="0" y="0" width="100%" height="100%" fill="url(#watermark)" fill-opacity="1" class="watermarklayer"></rect> <g data-v-0dd9719b="" fill="#10b6f0" class="icon-text-wrapper icon-svg-group iconsvg" transform="translate(48.64500427246094,94.95523262023926)"><g class="iconsvg-imagesvg" transform="translate(0,0)"><g><rect fill="#10b6f0" fill-opacity="0" stroke-width="2" x="0" y="0" width="60" height="60.089533404773114" class="image-rect"></rect> <svg x="0" y="0" width="60" height="60.089533404773114" filtersec="colorsb4979858713" class="image-svg-svg primary" style="overflow: visible;"><svg xmlns="http://www.w3.org/2000/svg" viewBox="3.1399993896484375 1.0081400871276855 961.5499877929688 962.98046875"><path fill-rule="evenodd" clip-rule="evenodd" fill="#10B6F0" d="M648.79 29.94C568.1 55.75 514.33 136.21 525 223.33c12.11 98.59 102.11 168.92 200.7 156.86 87.13-10.69 152.21-82.3 157.77-166.83 45.41 67.37 72.39 144.41 79.95 223.43-54.56 60.27-130.15 102-216.99 112.63-191.86 23.55-367.1-113.41-390.66-305.32-10.63-86.81 11.61-170.25 56.92-237.74 78.49-11.77 159.77-4.22 236.1 23.58z"></path><path fill-rule="evenodd" clip-rule="evenodd" fill="#10B6F0" d="M242.52 584.8c-87.14 10.68-152.21 82.28-157.79 166.83-45.42-67.36-72.38-144.4-79.94-223.41 54.56-60.27 130.15-101.99 216.98-112.62 191.89-23.53 367.11 113.41 390.63 305.3 10.67 86.82-11.56 170.24-56.87 237.75-78.49 11.75-159.76 4.2-236.08-23.6 80.7-25.84 134.45-106.28 123.76-193.41-12.06-98.52-102.11-168.9-200.69-156.84z"></path><path fill-rule="evenodd" clip-rule="evenodd" fill="#07A150" d="M919.34 688.61c-77.94 20.04-133.37 90.18-135.06 170.47-48.58 38.79-103.42 67.09-161.16 84.44a348.733 348.733 0 0 1-6.76-37.85C592.8 713.82 729.78 538.55 921.67 515.06c14.45-1.78 28.81-2.61 43.02-2.61-3.7 60.14-18.67 119.97-45.35 176.16zM46.13 282.27c77.55-21.03 132.26-91.83 132.83-172.33 48.09-39.46 102.54-68.45 160-86.56 3.45 13.8 6.09 27.95 7.87 42.42C370.35 257.69 233.39 432.93 41.5 456.46c-12.87 1.57-25.68 2.4-38.36 2.57 2.89-60.21 17.09-120.25 42.99-176.76z"></path></svg></svg> <!----></g></g> <g transform="translate(67,6.873514175415039)"><g data-gra="path-name" fill-rule="" class="tp-name iconsvg-namesvg" transform="translate(0,0)"><g transform="scale(1)"><g><path d="M18.32-1.37L21.46-28.12 25.06-28.12 23.83-17.86Q28.37-19.91 32.62-22.5L32.62-22.5 32.33-18.65Q28.51-16.31 23.36-14.11L23.36-14.11 21.96-2.2Q21.92-2.09 21.92-1.87L21.92-1.87Q21.92-1.62 22.07-1.55 22.21-1.48 22.61-1.48L22.61-1.48 25.52-1.48Q29.16-1.48 32.58-3.02L32.58-3.02 32.18 0.79Q30.74 1.4 29.07 1.64 27.4 1.87 25.13 1.87L25.13 1.87 21.38 1.87Q19.62 1.87 18.9 1.06 18.18 0.25 18.32-1.37L18.32-1.37ZM9.79 2.41L10.69-5.33Q6.73-3.74 2.38-2.77L2.38-2.77 2.66-6.3Q7.42-7.49 11.12-9L11.12-9 12.02-16.7 4-16.7 4.36-20.12 12.42-20.12 13.36-28.04 17.03-28.04 13.39 2.41 9.79 2.41ZM57.53-25.49L69.77-25.49 69.41-22.28 40.61-22.28 40.97-25.49 53.68-25.49 52.78-28.44 56.52-28.44 57.53-25.49ZM66.46-16.92L65.63-9.54 56.34-9.54 55.19-0.04Q54.83 2.52 51.95 2.52L51.95 2.52Q50.44 2.52 49.27 2.25 48.1 1.98 46.76 1.48L46.76 1.48 47.2-1.66Q48.74-1.19 50.98-0.79L50.98-0.79Q51.08-0.76 51.23-0.76L51.23-0.76Q51.41-0.76 51.48-0.86 51.55-0.97 51.59-1.22L51.59-1.22 52.63-9.54 42.41-9.54 43.34-17.46Q43.49-18.76 44.28-19.42 45.07-20.09 46.44-20.02L46.44-20.02 63.65-20.02Q66.78-20.02 66.46-16.92L66.46-16.92ZM46.76-16.99L46.26-12.56 62.39-12.56 62.86-16.99 46.76-16.99ZM42.8 0.07L38.81 0.07 44.57-7.85 48.35-7.85 42.8 0.07ZM67.64 0.25L63.83 0.25 59.62-7.78 63.22-7.78 67.64 0.25ZM80.14-12.17L75.56-12.17Q78.98-16.56 81.68-20.56L81.68-20.56Q84.1-24.16 86.36-28.19L86.36-28.19 90.72-28.19Q89.5-25.92 88.38-24.12L88.38-24.12 96.66-24.12Q98.14-24.12 98.95-23.56 99.76-23 99.76-22L99.76-22Q99.76-21.2 99.29-20.27L99.29-20.27Q97.31-16.02 94.5-12.35L94.5-12.35Q98.86-4.72 105.16 0.97L105.16 0.97 101.45 2.74Q96.44-2.48 92.27-9.54L92.27-9.54Q85.9-2.05 77.29 2.63L77.29 2.63 73.55 0.86Q82.33-3.92 88.67-10.98L88.67-10.98Q93.2-15.98 95.15-20.3L95.15-20.3 95.22-20.59Q95.22-20.88 94.79-20.88L94.79-20.88 86.33-20.88Q83.41-16.38 80.14-12.17L80.14-12.17ZM126.29-12.28L122.47-12.28Q126.11-19.69 129.46-28.3L129.46-28.3 133.09-28.3 131.36-24.08 136.48-24.08Q139.61-24.08 139.61-21.6L139.61-21.6Q139.61-20.48 139.12-19.12 138.64-17.75 137.77-15.95L137.77-15.95 137.27-14.83Q136.01-12.06 134.46-9.61L134.46-9.61Q137.59-3.67 141.48 1.3L141.48 1.3 138.24 2.84Q134.64-2.34 132.48-6.7L132.48-6.7Q128.41-1.12 122.76 2.95L122.76 2.95 119.23 1.4Q123.44-1.76 126.32-4.79L126.32-4.79Q128.81-7.34 131.26-11.02L131.26-11.02Q134.03-15.12 135.54-20.3L135.54-20.3Q135.58-20.41 135.58-20.56L135.58-20.56Q135.58-20.84 135.25-20.84L135.25-20.84 130-20.84Q128.77-17.89 126.79-13.43L126.79-13.43 126.29-12.28ZM122.94-6.95L122.58-3.64Q116.46-1.66 110.02-0.36L110.02-0.36 110.45-3.74Q112.79-4.21 114.52-4.64L114.52-4.64 115.49-13.07 111.74-13.07 112.1-16.16 115.85-16.16 116.64-22.9 112.25-22.9 112.61-26.03 124.31-26.03 123.95-22.9 120.06-22.9 119.27-16.16 122.83-16.16 122.47-13.07 118.91-13.07 118.01-5.51Q119.59-5.94 120.38-6.19L120.38-6.19 122.94-6.95ZM166.93-8.71L163.19-8.71 163.48-11.3 167.18-11.3 167.4-13.57 162.43-13.57Q161.93-8.35 161.14-4.79L161.14-4.79Q160.24-0.68 158.58 2.48L158.58 2.48 155.48 1.66Q157.46-1.87 158.4-6.62L158.4-6.62Q159.16-10.44 159.8-17.78L159.8-17.78 160.24-23.04Q160.34-24.55 160.99-25.24 161.64-25.92 163.01-25.92L163.01-25.92 168.16-25.92 167.33-28.44 170.71-28.44 171.61-25.92 178.02-25.92 177.62-23.04 163.33-23.04 162.79-17.06 162.68-16.13 167.65-16.13 167.87-18.29 164.3-18.29 164.59-20.84 168.12-20.84 168.3-22.54 171.29-22.54 171.11-20.84 174.42-20.84Q176.76-20.84 176.76-18.65L176.76-18.65Q176.76-18.25 176.72-18.04L176.72-18.04 176.47-16.13 178.09-16.13 177.77-13.57 176.15-13.57 175.54-8.71 169.92-8.71 169.74-6.88 173.3-6.88Q174.53-6.88 175.18-6.28 175.82-5.69 175.82-4.5L175.82-4.5Q175.82-4.1 175.79-3.89L175.79-3.89 175.03 2.27 161.5 2.27 162.4-4.64Q162.79-6.88 164.99-6.88L164.99-6.88 166.75-6.88 166.93-8.71ZM158.29-7.96L155.84-6.34Q154.84-8.71 154.22-9.94L154.22-9.94 152.78 2.66 149.69 2.66 150.95-8.78Q149.54-6.08 147.71-3.35L147.71-3.35 145.12-4.9Q148.9-9.68 151.42-14.76L151.42-14.76 147.06-14.76 147.46-17.71 151.96-17.71 153.14-28.22 156.31-28.22 155.12-17.71 158.76-17.71 158.4-14.76 154.76-14.76 154.73-14.33Q156.82-11.05 158.29-7.96L158.29-7.96ZM148.07-25.96L150.66-25.96 151.67-19.22 148.97-19.22 148.07-25.96ZM157.54-25.96L160.16-25.96 158.47-19.22 155.7-19.22 157.54-25.96ZM170.64-16.13L173.45-16.13 173.74-18.29 170.86-18.29 170.64-16.13ZM173.12-13.57L170.39-13.57 170.17-11.3 172.84-11.3 173.12-13.57ZM172.15-0.54L172.62-4.25 165.46-4.25 165.02-0.54 172.15-0.54Z" transform="translate(-2.380000114440918, 28.440000534057617)"></path></g> <!----> <!----> <!----> <!----> <!----> <!----> <!----></g></g> <g data-gra="path-slogan" fill-rule="" class="tp-slogan iconsvg-slogansvg" fill="#10b6f0" transform="translate(5,37.39000129699707)"><rect x="0" height="1" y="3.9750003814697266" width="21.259994506835938"></rect> <rect height="1" y="3.9750003814697266" width="21.259994506835938" x="144.4499969482422"></rect> <g transform="translate(24.259994506835938,0)"><g transform="scale(1)"><path d="M4.13-7.64L2.06-7.64L2.06-4.97L4.13-4.97Q5.95-4.92 5.91-6.38L5.91-6.38Q5.91-7.64 4.13-7.64L4.13-7.64ZM4.59 0L0.89 0L0.89-8.58L4.69-8.58Q6.98-8.48 7.08-6.42L7.08-6.42Q7.08-5.16 5.95-4.64L5.95-4.64Q7.55-4.08 7.55-2.53L7.55-2.53Q7.41-0.09 4.59 0L4.59 0ZM4.31-3.98L2.06-3.98L2.06-0.98L4.55-0.98Q6.33-1.03 6.38-2.53L6.38-2.53Q6.38-3.98 4.31-3.98L4.31-3.98ZM10.17-1.03L15.33-1.03L15.33 0L9 0L9-8.58L15.23-8.58L15.23-7.59L10.17-7.59L10.17-4.92L14.86-4.92L14.86-3.89L10.17-3.89L10.17-1.03ZM17.02-8.58L18.19-8.58L18.19 0L17.02 0L17.02-8.58ZM19.45-1.92L19.45-2.77L20.53-2.77L20.53-2.16Q20.53-0.75 21.84-0.75L21.84-0.75Q23.20-0.75 23.20-2.25L23.20-2.25L23.20-8.58L24.38-8.58L24.38-2.30Q24.33 0.09 21.89 0.14L21.89 0.14Q19.59 0.09 19.45-1.92L19.45-1.92ZM26.34-8.58L27.52-8.58L27.52 0L26.34 0L26.34-8.58ZM30.89-8.58L35.20-1.64L35.20-8.58L36.33-8.58L36.33 0L35.02 0L30.66-6.94L30.61-6.94L30.61 0L29.48 0L29.48-8.58L30.89-8.58ZM44.53-3.61L41.91-3.61L41.91-4.59L45.66-4.59L45.66 0L44.91 0L44.63-1.08Q43.64 0.09 41.81 0.14L41.81 0.14Q40.08 0.14 39.14-0.75L39.14-0.75Q37.73-2.06 37.78-4.36L37.78-4.36Q38.11-8.63 41.86-8.81L41.86-8.81Q45.05-8.63 45.52-6L45.52-6L44.39-6Q43.92-7.78 41.81-7.83L41.81-7.83Q39.14-7.64 39-4.31L39-4.31Q39-0.75 41.86-0.75L41.86-0.75Q42.89-0.75 43.64-1.31L43.64-1.31Q44.58-2.06 44.53-3.61L44.53-3.61ZM50.06-1.92L50.06-2.77L51.14-2.77L51.14-2.16Q51.14-0.75 52.45-0.75L52.45-0.75Q53.81-0.75 53.81-2.25L53.81-2.25L53.81-8.58L54.98-8.58L54.98-2.30Q54.94 0.09 52.50 0.14L52.50 0.14Q50.20 0.09 50.06-1.92L50.06-1.92ZM56.95-8.58L58.13-8.58L58.13 0L56.95 0L56.95-8.58ZM65.77-3.19L65.77-8.58L66.94-8.58L66.94-3.05Q66.80 0.05 63.42 0.14L63.42 0.14Q60.28 0.05 60.14-2.86L60.14-2.86L60.14-8.58L61.31-8.58L61.31-3.19Q61.36-0.84 63.47-0.80L63.47-0.80Q65.77-0.84 65.77-3.19L65.77-3.19ZM68.02-1.92L68.02-2.77L69.09-2.77L69.09-2.16Q69.09-0.75 70.41-0.75L70.41-0.75Q71.77-0.75 71.77-2.25L71.77-2.25L71.77-8.58L72.94-8.58L72.94-2.30Q72.89 0.09 70.45 0.14L70.45 0.14Q68.16 0.09 68.02-1.92L68.02-1.92ZM74.91-8.58L76.08-8.58L76.08 0L74.91 0L74.91-8.58ZM83.72-3.19L83.72-8.58L84.89-8.58L84.89-3.05Q84.75 0.05 81.38 0.14L81.38 0.14Q78.23 0.05 78.09-2.86L78.09-2.86L78.09-8.58L79.27-8.58L79.27-3.19Q79.31-0.84 81.42-0.80L81.42-0.80Q83.72-0.84 83.72-3.19L83.72-3.19ZM88.88-7.59L85.97-7.59L85.97-8.58L92.91-8.58L92.91-7.59L90-7.59L90 0L88.88 0L88.88-7.59ZM99.61 0L98.77-2.48L95.30-2.48L94.41 0L93.23 0L96.47-8.58L97.78-8.58L100.88 0L99.61 0ZM97.03-7.31L95.67-3.52L98.34-3.52L97.08-7.31L97.03-7.31ZM103.31-8.58L107.63-1.64L107.63-8.58L108.75-8.58L108.75 0L107.44 0L103.08-6.94L103.03-6.94L103.03 0L101.91 0L101.91-8.58L103.31-8.58ZM116.95-3.61L114.33-3.61L114.33-4.59L118.08-4.59L118.08 0L117.33 0L117.05-1.08Q116.06 0.09 114.23 0.14L114.23 0.14Q112.50 0.14 111.56-0.75L111.56-0.75Q110.16-2.06 110.20-4.36L110.20-4.36Q110.53-8.63 114.28-8.81L114.28-8.81Q117.47-8.63 117.94-6L117.94-6L116.81-6Q116.34-7.78 114.23-7.83L114.23-7.83Q111.56-7.64 111.42-4.31L111.42-4.31Q111.42-0.75 114.28-0.75L114.28-0.75Q115.31-0.75 116.06-1.31L116.06-1.31Q117-2.06 116.95-3.61L116.95-3.61Z" transform="translate(-0.890625, 8.8125)"></path></g></g></g></g></g><defs v-gra="od"></defs></svg>